<mxfile host="app.diagrams.net" agent="Mozilla/5.0 (Windows NT 10.0; Win64; x64) AppleWebKit/537.36 (KHTML, like Gecko) Chrome/128.0.0.0 Safari/537.36 OPR/114.0.0.0" version="25.0.3">
  <diagram name="PÃ¡gina-1" id="OTAhjAdIgoqZ6hFIIfIA">
    <mxGraphModel dx="1393" dy="763" grid="1" gridSize="10" guides="1" tooltips="1" connect="1" arrows="1" fold="1" page="1" pageScale="1" pageWidth="827" pageHeight="1169" math="0" shadow="0">
      <root>
        <mxCell id="0" />
        <mxCell id="1" parent="0" />
        <mxCell id="VD3epi-PkLIqhGQlzcwX-1" value="INICIO" style="strokeWidth=2;html=1;shape=mxgraph.flowchart.start_1;whiteSpace=wrap;" vertex="1" parent="1">
          <mxGeometry x="360" y="80" width="100" height="60" as="geometry" />
        </mxCell>
        <mxCell id="VD3epi-PkLIqhGQlzcwX-2" value="FIM" style="strokeWidth=2;html=1;shape=mxgraph.flowchart.start_1;whiteSpace=wrap;" vertex="1" parent="1">
          <mxGeometry x="360" y="750" width="100" height="60" as="geometry" />
        </mxCell>
        <mxCell id="VD3epi-PkLIqhGQlzcwX-21" style="edgeStyle=orthogonalEdgeStyle;rounded=0;orthogonalLoop=1;jettySize=auto;html=1;entryX=0.5;entryY=0;entryDx=0;entryDy=0;" edge="1" parent="1" source="VD3epi-PkLIqhGQlzcwX-3" target="VD3epi-PkLIqhGQlzcwX-5">
          <mxGeometry relative="1" as="geometry" />
        </mxCell>
        <mxCell id="VD3epi-PkLIqhGQlzcwX-3" value="ALTURA" style="html=1;strokeWidth=2;shape=manualInput;whiteSpace=wrap;rounded=1;size=26;arcSize=11;" vertex="1" parent="1">
          <mxGeometry x="360" y="270" width="100" height="60" as="geometry" />
        </mxCell>
        <mxCell id="VD3epi-PkLIqhGQlzcwX-4" value="PESO" style="html=1;strokeWidth=2;shape=manualInput;whiteSpace=wrap;rounded=1;size=26;arcSize=11;" vertex="1" parent="1">
          <mxGeometry x="360" y="170" width="100" height="60" as="geometry" />
        </mxCell>
        <mxCell id="VD3epi-PkLIqhGQlzcwX-5" value="IMC = PESO / (ALTURA * ALTURA)" style="rounded=1;whiteSpace=wrap;html=1;absoluteArcSize=1;arcSize=14;strokeWidth=2;" vertex="1" parent="1">
          <mxGeometry x="310" y="370" width="200" height="40" as="geometry" />
        </mxCell>
        <mxCell id="VD3epi-PkLIqhGQlzcwX-6" value="IMC &amp;gt;= 25" style="strokeWidth=2;html=1;shape=mxgraph.flowchart.decision;whiteSpace=wrap;" vertex="1" parent="1">
          <mxGeometry x="360" y="530" width="100" height="80" as="geometry" />
        </mxCell>
        <mxCell id="VD3epi-PkLIqhGQlzcwX-7" value="IMC" style="strokeWidth=2;html=1;shape=mxgraph.flowchart.display;whiteSpace=wrap;" vertex="1" parent="1">
          <mxGeometry x="360" y="440" width="100" height="60" as="geometry" />
        </mxCell>
        <mxCell id="VD3epi-PkLIqhGQlzcwX-8" value="ESTA ACIMA" style="strokeWidth=2;html=1;shape=mxgraph.flowchart.display;whiteSpace=wrap;" vertex="1" parent="1">
          <mxGeometry x="580" y="540" width="100" height="60" as="geometry" />
        </mxCell>
        <mxCell id="VD3epi-PkLIqhGQlzcwX-9" value="" style="strokeWidth=2;html=1;shape=mxgraph.flowchart.start_2;whiteSpace=wrap;" vertex="1" parent="1">
          <mxGeometry x="390" y="670" width="40" height="40" as="geometry" />
        </mxCell>
        <mxCell id="VD3epi-PkLIqhGQlzcwX-10" style="edgeStyle=orthogonalEdgeStyle;rounded=0;orthogonalLoop=1;jettySize=auto;html=1;entryX=0.5;entryY=0;entryDx=0;entryDy=0;entryPerimeter=0;" edge="1" parent="1" source="VD3epi-PkLIqhGQlzcwX-9" target="VD3epi-PkLIqhGQlzcwX-2">
          <mxGeometry relative="1" as="geometry" />
        </mxCell>
        <mxCell id="VD3epi-PkLIqhGQlzcwX-11" style="edgeStyle=orthogonalEdgeStyle;rounded=0;orthogonalLoop=1;jettySize=auto;html=1;entryX=1;entryY=0.5;entryDx=0;entryDy=0;entryPerimeter=0;" edge="1" parent="1" source="VD3epi-PkLIqhGQlzcwX-8" target="VD3epi-PkLIqhGQlzcwX-9">
          <mxGeometry relative="1" as="geometry">
            <Array as="points">
              <mxPoint x="630" y="690" />
            </Array>
          </mxGeometry>
        </mxCell>
        <mxCell id="VD3epi-PkLIqhGQlzcwX-12" style="edgeStyle=orthogonalEdgeStyle;rounded=0;orthogonalLoop=1;jettySize=auto;html=1;exitX=0;exitY=0.5;exitDx=0;exitDy=0;exitPerimeter=0;entryX=0;entryY=0.5;entryDx=0;entryDy=0;entryPerimeter=0;" edge="1" parent="1" source="VD3epi-PkLIqhGQlzcwX-6" target="VD3epi-PkLIqhGQlzcwX-9">
          <mxGeometry relative="1" as="geometry">
            <Array as="points">
              <mxPoint x="280" y="570" />
              <mxPoint x="280" y="690" />
            </Array>
          </mxGeometry>
        </mxCell>
        <mxCell id="VD3epi-PkLIqhGQlzcwX-15" value="NAO" style="edgeLabel;html=1;align=center;verticalAlign=middle;resizable=0;points=[];" vertex="1" connectable="0" parent="VD3epi-PkLIqhGQlzcwX-12">
          <mxGeometry x="-0.8" y="-3" relative="1" as="geometry">
            <mxPoint as="offset" />
          </mxGeometry>
        </mxCell>
        <mxCell id="VD3epi-PkLIqhGQlzcwX-13" style="edgeStyle=orthogonalEdgeStyle;rounded=0;orthogonalLoop=1;jettySize=auto;html=1;exitX=1;exitY=0.5;exitDx=0;exitDy=0;exitPerimeter=0;entryX=0;entryY=0.5;entryDx=0;entryDy=0;entryPerimeter=0;" edge="1" parent="1" source="VD3epi-PkLIqhGQlzcwX-6" target="VD3epi-PkLIqhGQlzcwX-8">
          <mxGeometry relative="1" as="geometry" />
        </mxCell>
        <mxCell id="VD3epi-PkLIqhGQlzcwX-14" value="SIM" style="edgeLabel;html=1;align=center;verticalAlign=middle;resizable=0;points=[];" vertex="1" connectable="0" parent="VD3epi-PkLIqhGQlzcwX-13">
          <mxGeometry x="0.0833" y="-1" relative="1" as="geometry">
            <mxPoint as="offset" />
          </mxGeometry>
        </mxCell>
        <mxCell id="VD3epi-PkLIqhGQlzcwX-16" style="edgeStyle=orthogonalEdgeStyle;rounded=0;orthogonalLoop=1;jettySize=auto;html=1;entryX=0.5;entryY=0;entryDx=0;entryDy=0;entryPerimeter=0;" edge="1" parent="1" source="VD3epi-PkLIqhGQlzcwX-7" target="VD3epi-PkLIqhGQlzcwX-6">
          <mxGeometry relative="1" as="geometry" />
        </mxCell>
        <mxCell id="VD3epi-PkLIqhGQlzcwX-17" style="edgeStyle=orthogonalEdgeStyle;rounded=0;orthogonalLoop=1;jettySize=auto;html=1;entryX=0.5;entryY=0.167;entryDx=0;entryDy=0;entryPerimeter=0;" edge="1" parent="1" source="VD3epi-PkLIqhGQlzcwX-1" target="VD3epi-PkLIqhGQlzcwX-4">
          <mxGeometry relative="1" as="geometry" />
        </mxCell>
        <mxCell id="VD3epi-PkLIqhGQlzcwX-18" style="edgeStyle=orthogonalEdgeStyle;rounded=0;orthogonalLoop=1;jettySize=auto;html=1;entryX=0.5;entryY=0.167;entryDx=0;entryDy=0;entryPerimeter=0;" edge="1" parent="1" source="VD3epi-PkLIqhGQlzcwX-4" target="VD3epi-PkLIqhGQlzcwX-3">
          <mxGeometry relative="1" as="geometry" />
        </mxCell>
        <mxCell id="VD3epi-PkLIqhGQlzcwX-22" style="edgeStyle=orthogonalEdgeStyle;rounded=0;orthogonalLoop=1;jettySize=auto;html=1;entryX=0.5;entryY=0;entryDx=0;entryDy=0;entryPerimeter=0;" edge="1" parent="1" source="VD3epi-PkLIqhGQlzcwX-5" target="VD3epi-PkLIqhGQlzcwX-7">
          <mxGeometry relative="1" as="geometry" />
        </mxCell>
      </root>
    </mxGraphModel>
  </diagram>
</mxfile>
